HIERARCHY
ROOT ui
{
	 OFFSET 0 0 0
	 CHANNELS 3 XPosition YPosition Z Position
	 EndSite
	 {
	 OFFSET 0 -1 0
	 }
}
ROOT li
{
	 OFFSET 0 0 0
	 CHANNELS 3 XPosition YPosition Z Position
	 EndSite
	 {
	 OFFSET 0 -1 0
	 }
}
ROOT ul
{
	 OFFSET 0 0 0
	 CHANNELS 3 XPosition YPosition Z Position
	 EndSite
	 {
	 OFFSET 0 -1 0
	 }
}
ROOT ll
{
	 OFFSET 0 0 0
	 CHANNELS 3 XPosition YPosition Z Position
	 EndSite
	 {
	 OFFSET 0 -1 0
	 }
}
ROOT tt
{
	 OFFSET 0 0 0
	 CHANNELS 3 XPosition YPosition Z Position
	 EndSite
	 {
	 OFFSET 0 -1 0
	 }
}
ROOT tb
{
	 OFFSET 0 0 0
	 CHANNELS 3 XPosition YPosition Z Position
	 EndSite
	 {
	 OFFSET 0 -1 0
	 }
}
ROOT td
{
	 OFFSET 0 0 0
	 CHANNELS 3 XPosition YPosition Z Position
	 EndSite
	 {
	 OFFSET 0 -1 0
	 }
}
ROOT v
{
	 OFFSET 0 0 0
	 CHANNELS 3 XPosition YPosition Z Position
	 EndSite
	 {
	 OFFSET 0 -1 0
	 }
}
ROOT bn
{
	 OFFSET 0 0 0
	 CHANNELS 3 XPosition YPosition Z Position
	 EndSite
	 {
	 OFFSET 0 -1 0
	 }
}
MOTION
Frames: 32
Frame Time: 0.002
-0.0034347128868103026	-0.0014405809640884398	0		0.4035820617675781	-2.36251806640625	0		-1.03857958984375	0.2966583557128906	0		-0.8304762573242187	-2.362495361328125	0		2.2249326171875	-0.3851684265136719	0		3.70253125	-0.43356607055664065	0		4.59707470703125	-0.17344903564453126	0		6.01664501953125	0.7666917114257813	0		-0.4817572937011719	5.81849560546875	0		
-0.003442692995071411	-0.0016664869785308837	0		0.4223689270019531	-2.37993505859375	0		-1.038582763671875	0.29644924926757815	0		-0.82162060546875	-2.372795166015625	0		2.2338984375	-0.38751824951171876	0		3.720534912109375	-0.43202789306640627	0		4.589966796875	-0.18366949462890625	0		6.00950927734375	0.7662987670898438	0		-0.44762359619140624	5.8229453125	0		
-4.2917901277542115E-4	0.001089684009552002	0		0.37242034912109373	-2.369667236328125	0		-1.105512939453125	0.3049036560058594	0		-0.807708984375	-2.377134765625	0		2.260915283203125	-0.3840277404785156	0		3.750267578125	-0.45758599853515625	0		4.5918310546875	-0.19595692443847657	0		6.020828125	0.7447523803710937	0		-0.4514311218261719	5.83577587890625	0		
0.006616732120513916	0.00781983518600464	0		0.42631866455078127	-2.375400634765625	0		-1.0295352783203124	0.3039720458984375	0		-0.819699951171875	-2.371209228515625	0		2.30282763671875	-0.39066607666015624	0		3.756445068359375	-0.43689093017578123	0		4.586875	-0.18915522766113282	0		6.02081396484375	0.744280517578125	0		-0.31232275390625	5.8412197265625	0		
-4.79324996471405E-4	7.023839950561524E-4	0		0.420198486328125	-2.3825322265625	0		-1.038637939453125	0.29588467407226565	0		-0.7898414306640625	-2.380680419921875	0		2.35282275390625	-0.388365478515625	0		3.7741376953125	-0.46529010009765626	0		4.5947568359375	-0.19845867919921875	0		6.00946826171875	0.7648820190429687	0		-0.44847125244140623	5.82336962890625	0		
-5.124229788780213E-4	5.313889980316162E-4	0		0.4430638732910156	-2.39093212890625	0		-1.053697021484375	0.2928704833984375	0		-0.8278946533203125	-2.3804716796875	0		2.411793212890625	-0.38813665771484374	0		3.800089111328125	-0.4667507629394531	0		4.614662109375	-0.20486140441894532	0		6.01294189453125	0.7471052856445313	0		-0.44845062255859375	5.82320263671875	0		
-0.0035798220634460447	-0.0025947749614715575	0		0.4170340576171875	-2.387837158203125	0		-1.053732421875	0.29272457885742187	0		-0.7830847778320312	-2.394060546875	0		2.3716943359375	-0.39392218017578123	0		3.846808837890625	-0.49140216064453124	0		4.62257275390625	-0.210132080078125	0		6.01069970703125	0.7277592163085937	0		-0.48248162841796877	5.818384765625	0		
-5.932450294494629E-4	2.3505200445652009E-4	0		0.4169665832519531	-2.38798193359375	0		-1.0537720947265625	0.29259490966796875	0		-0.8071806640625	-2.396957275390625	0		2.374853759765625	-0.37311782836914065	0		3.842026611328125	-0.4645347900390625	0		4.6394482421875	-0.2184799346923828	0		6.02071826171875	0.7427384643554688	0		-0.4192117004394531	5.84362939453125	0		
0.003389492988586426	0.0030701799392700195	0		0.4168914489746094	-2.3881123046875	0		-1.0597657470703126	0.2975408935546875	0		-0.7733067016601562	-2.4024072265625	0		2.41686962890625	-0.36668505859375	0		3.893686767578125	-0.4942161865234375	0		4.678318359375	-0.22703562927246093	0		6.01705810546875	0.726911376953125	0		-0.4824410400390625	5.8181298828125	0		
-6.894099712371826E-4	-5.290000117383897E-7	0		0.4367190246582031	-2.397425048828125	0		-1.063850341796875	0.2934850158691406	0		-0.8034769287109375	-2.411210693359375	0		2.434883056640625	-0.3600065002441406	0		3.916757080078125	-0.48160772705078125	0		4.6972353515625	-0.23038818359375	0		6.00919287109375	0.7302215576171875	0		-0.44934234619140623	5.82470068359375	0		
-7.41346001625061E-4	-9.58079993724823E-5	0		0.4066106262207031	-2.399231201171875	0		-1.0698480224609375	0.29846563720703123	0		-0.7257781982421875	-2.4330615234375	0		2.579837890625	-0.35957110595703123	0		3.93560791015625	-0.490952392578125	0		4.7281484375	-0.23385281372070313	0		6.009158203125	0.729889404296875	0		-0.48434915161132813	5.81995849609375	0		
-0.0038244900703430177	-0.0031467928886413574	0		0.4044851379394531	-2.40229931640625	0		-1.0689853515625	0.28939425659179685	0		-0.7939603881835937	-2.44145703125	0		2.56980810546875	-0.3565987243652344	0		3.953455810546875	-0.500280029296875	0		4.7519912109375	-0.2442413330078125	0		6.01331640625	0.708702880859375	0		-0.45410397338867187	5.83958837890625	0		
-8.493840098381043E-4	-2.4312199652194976E-4	0		0.44406707763671877	-2.434767822265625	0		-1.0639949951171874	0.2932979736328125	0		-0.7940603637695313	-2.4415087890625	0		2.579716796875	-0.3598121337890625	0		4.015220703125	-0.518033447265625	0		4.77087158203125	-0.2505713806152344	0		6.01691650390625	0.7256049194335937	0		-0.40392303466796875	5.85203466796875	0		
0.006165888786315918	0.006634758949279785	0		0.44194757080078123	-2.43680859375	0		-1.0759434814453126	0.3033842468261719	0		-0.7913191528320312	-2.4575751953125	0		2.66871142578125	-0.3547963562011719	0		4.029473876953125	-0.48630206298828127	0		4.78178271484375	-0.2538095397949219	0		6.0090498046875	0.7289644165039062	0		-0.4058365478515625	5.855009765625	0		
-9.5517498254776E-4	-3.338130116462708E-4	0		0.4607308654785156	-2.449043212890625	0		-1.0141122436523438	0.29074993896484375	0		-0.7764763793945313	-2.463747802734375	0		2.75565869140625	-0.35474822998046873	0		4.043114013671875	-0.5165517578125	0		4.782755859375	-0.2509326019287109	0		6.013208984375	0.7078438720703125	0		-0.4067715148925781	5.85598876953125	0		
-0.001004390001296997	-3.589630126953125E-4	0		0.43265121459960937	-2.447797607421875	0		-1.0941923828125	0.2875387268066406	0		-0.7668568115234375	-2.49285791015625	0		2.788711181640625	-0.34414947509765625	0		4.08005419921875	-0.5170142211914063	0		4.7857822265625	-0.2430576629638672	0		6.0053447265625	0.7112703247070312	0		-0.45487774658203123	5.84044921875	0		
-0.0010501610040664672	-3.7202098965644835E-4	0		0.46238714599609376	-2.466115478515625	0		-1.0192374877929689	0.2867945251464844	0		-0.7531906127929687	-2.51799755859375	0		2.799819091796875	-0.3283155517578125	0		4.1229287109375	-0.5245179443359375	0		4.7906923828125	-0.24718270874023437	0		5.99959423828125	0.7077658081054687	0		-0.4558244323730469	5.841453125	0		
-0.001091657042503357	-3.741239905357361E-4	0		0.4452552490234375	-2.471953369140625	0		-1.08923193359375	0.2915040283203125	0		-0.7823525390625	-2.5267001953125	0		2.7916640625	-0.33927288818359375	0		4.1499189453125	-0.5208422241210937	0		4.81363671875	-0.24846644592285155	0		5.99956640625	0.7076287841796876	0		-0.4407024841308594	5.85030615234375	0		
-0.001127784013748169	-3.6631500720977784E-4	0		0.4961138000488281	-2.480458984375	0		-1.020228759765625	0.2948321838378906	0		-0.7076455688476563	-2.55043359375	0		2.83771240234375	-0.3307509765625	0		4.18369677734375	-0.539211669921875	0		4.81447802734375	-0.26050604248046877	0		6.009462890625	0.6917342529296875	0		-0.40761627197265626	5.85698828125	0		
-0.0011571769714355468	-3.4954801201820374E-4	0		0.43806570434570313	-2.48086474609375	0		-1.030246337890625	0.2959536437988281	0		-0.709916748046875	-2.573392333984375	0		2.878569580078125	-0.3421568298339844	0		4.22572265625	-0.5336346435546875	0		4.83032666015625	-0.27266787719726565	0		6.00651806640625	0.6744841918945312	0		-0.42171755981445314	5.8471474609375	0		
-0.004207976818084717	-0.0032944979667663575	0		0.48389486694335937	-2.49629833984375	0		-1.0433768310546876	0.28510806274414063	0		-0.7131649780273438	-2.5963369140625	0		2.909457275390625	-0.35143862915039065	0		4.21962255859375	-0.5415453491210938	0		4.857224609375	-0.28090853881835937	0		5.99937060546875	0.674710205078125	0		-0.4227340393066406	5.848181640625	0		
-0.001188493013381958	-2.9212799668312074E-4	0		0.4576750793457031	-2.51900146484375	0		-1.1183856201171876	0.28588180541992186	0		-0.7262947998046875	-2.61017919921875	0		2.94321826171875	-0.37472244262695314	0		4.24260498046875	-0.5427103271484375	0		4.87198583984375	-0.3039930419921875	0		5.9958681640625	0.6922318725585938	0		-0.4568471984863281	5.84255078125	0		
-0.0011854909658432008	-2.5220000743865966E-4	0		0.4915854187011719	-2.532292724609375	0		-1.0353214111328124	0.292076416015625	0		-0.7026119384765624	-2.646387939453125	0		2.966365478515625	-0.3608673400878906	0		4.28741455078125	-0.5630530395507812	0		4.9011220703125	-0.29117886352539063	0		6.003	0.692289306640625	0		-0.40679681396484374	5.85608447265625	0		
0.005903295993804932	0.006725121974945068	0		0.48964654541015623	-2.534213623046875	0		-1.0302694091796876	0.2960486755371094	0		-0.6776787109375	-2.661605712890625	0		2.997302734375	-0.3700559997558594	0		4.2996162109375	-0.5460219116210937	0		4.93416650390625	-0.2893580017089844	0		6.00301171875	0.692625732421875	0		-0.407909423828125	5.8571318359375	0		
0.024871313095092773	-4.0833300352096556E-4	0		0.5076320495605469	-2.5483203125	0		-1.055259521484375	0.29431585693359374	0		-0.6868560791015625	-2.692483642578125	0		3.000205078125	-0.38492819213867185	0		4.293396484375	-0.5737597045898437	0		4.95013525390625	-0.2973171691894531	0		5.9993974609375	0.6758648681640625	0		-0.2889578857421875	5.86799169921875	0		
-0.0010690959692001344	-9.00920033454895E-5	0		0.4876964416503906	-2.5590390625	0		-1.05521435546875	0.29432925415039063	0		-0.65696533203125	-2.72174853515625	0		3.011161376953125	-0.3968418273925781	0		4.33436962890625	-0.5849118041992187	0		4.963107421875	-0.3071948547363281	0		5.992302734375	0.67660791015625	0		-0.4243522338867188	5.849373046875	0		
-0.0040223121643066405	-0.0029952149391174318	0		0.5177350463867187	-2.577240478515625	0		-1.0551544189453126	0.29433660888671875	0		-0.6989928588867188	-2.747305908203125	0		3.0349736328125	-0.42584518432617186	0		4.351388671875	-0.5937747192382813	0		4.97117041015625	-0.3099736328125	0		5.98522509765625	0.6791956176757813	0		-0.42360745239257813	5.8484052734375	0		
-9.023780226707458E-4	4.417499899864197E-5	0		0.49991534423828127	-2.584962158203125	0		-1.0550828857421874	0.29433734130859374	0		-0.657096923828125	-2.785689697265625	0		3.042032958984375	-0.43164764404296874	0		4.35168359375	-0.5764248046875	0		4.98213427734375	-0.32473464965820314	0		5.99019189453125	0.6591141357421875	0		-0.41078875732421877	5.8593193359375	0		
-8.003060221672058E-4	1.159989982843399E-4	0		0.5231293334960937	-2.59307568359375	0		-1.0499639892578125	0.2982829284667969	0		-0.672953369140625	-2.8025107421875	0		3.065981689453125	-0.4505830078125	0		4.36956591796875	-0.6032052001953125	0		5.00324951171875	-0.3255504760742188	0		5.994453125	0.6391494140625	0		-0.29100784301757815	5.87019921875	0		
-6.894850134849548E-4	1.899850070476532E-4	0		0.5252877197265625	-2.6099775390625	0		-1.0589537353515626	0.2903583984375	0		-0.6119822387695313	-2.841074951171875	0		3.054976318359375	-0.4661534729003906	0		4.3868017578125	-0.5949395141601562	0		4.99728173828125	-0.336068603515625	0		5.98739208984375	0.6402943115234375	0		-0.42557904052734374	5.84953662109375	0		
-5.723559856414795E-4	2.6547101140022276E-4	0		0.5225841674804688	-2.614827392578125	0		-1.0648140869140625	0.2953987731933594	0		-0.6209221801757813	-2.872965576171875	0		3.050972412109375	-0.48277374267578127	0		4.3798662109375	-0.6054158325195312	0		5.01419921875	-0.35978030395507815	0		5.98383984375	0.6258458251953125	0		-0.4551589050292969	5.8298515625	0		
-0.0034792640209198	-0.002629818916320801	0		0.5267994995117188	-2.629740966796875	0		-1.0647193603515626	0.2953792114257813	0		-0.581939453125	-2.915310546875	0		3.072636962890625	-0.5356273803710937	0		4.3739384765625	-0.615887939453125	0		4.99725927734375	-0.36915472412109374	0		5.987544921875	0.642406494140625	0		-0.48961785888671877	5.82420751953125	0		
